<?xml version="1.0" standalone="no"?><!DOCTYPE svg PUBLIC "-//W3C//DTD SVG 1.1//EN" "http://www.w3.org/Graphics/SVG/1.1/DTD/svg11.dtd"><svg t="1556688189113" class="icon" style="" viewBox="0 0 1024 1024" version="1.1" xmlns="http://www.w3.org/2000/svg" p-id="1510" xmlns:xlink="http://www.w3.org/1999/xlink" width="200" height="200"><defs><style type="text/css"></style></defs><path d="M639.451557 456.861129 639.451557 456.860107 639.451557 456.860107Z" p-id="1511"></path><path d="M511.706474 0c-282.43931 0-511.400676 229.102504-511.400676 511.715679s228.962388 511.715679 511.400676 511.715679 511.400676-229.102504 511.400676-511.715679S794.144761 0 511.706474 0zM420.171428 383.722071l219.280128 0c10.093401 0 18.273259 8.185994 18.273259 18.286554 0 10.096469-8.180881 18.283486-18.273259 18.283486L420.171428 420.292112c-10.091355 0-18.273259-8.185994-18.273259-18.283486C401.89817 391.908065 410.080073 383.722071 420.171428 383.722071zM511.874203 749.406113c-0.056251 0-0.111478 0.008182-0.168752 0.008182-0.018409 0-0.036819-0.003068-0.056251-0.003068-0.037841 0-0.07466 0.003068-0.111478 0.003068l0-0.008182c-10.013627-0.091024-18.10553-8.235086-18.10553-18.276327s8.091903-18.185303 18.10553-18.276327l0-0.008182c20.184756 0 36.54754-16.369943 36.54754-36.567995 0-20.197029-16.362784-36.566972-36.54754-36.566972L383.626956 639.710309l0-0.004091-18.273259 0c-10.093401 0-18.274282-8.185994-18.274282-18.284509 0-10.096469 8.181904-18.283486 18.274282-18.283486l146.18607 0c0.01125 0 0.021477 0.006136 0.032728 0.006136 40.353148 0.018409 73.06133 32.75216 73.06133 73.133945C584.632803 716.554747 552.087236 749.224066 511.874203 749.406113zM657.724816 749.415317l-36.545495 0c0-0.028637 0-0.055228 0-0.083865-9.311006-0.842736-16.609264-8.664636-16.609264-18.200644s7.298258-17.357908 16.609264-18.200644c0-0.028637 0-0.055228 0-0.083865l15.226522 0c52.142248 0 94.41303-32.742955 94.41303-73.134967 0-40.39508-42.270782-73.141104-94.41303-73.141104L602.906062 566.570228c0-0.001023 0-0.001023 0-0.001023s-0.001023 0-0.002045 0L273.985358 566.569206c-10.092378 0-18.273259-8.187017-18.273259-18.283486 0-10.099537 8.181904-18.287577 18.273259-18.287577l328.918658 0c0.006136 0 0.01125 0.004091 0.016364 0.004091l54.804435 0c60.554268 0 109.640576 49.11699 109.640576 109.709099C767.365391 700.297305 718.279084 749.415317 657.724816 749.415317zM657.724816 493.43117l-18.273259 0c0 0 0 0-0.001023 0L328.806157 493.43117c-10.093401 0-18.273259-8.185994-18.273259-18.286554 0-10.096469 8.180881-18.284509 18.273259-18.284509l307.599686 0c52.142248 0 94.41303-32.742955 94.41303-73.134967 0-40.39508-21.521475-63.426116-73.094058-73.139058l0-0.083865c-9.309983-0.842736-16.607219-8.664636-16.607219-18.200644s7.297235-17.357908 16.607219-18.200644l0-0.083865c0.444891 0 0.887737 0.01125 1.331605 0.016364 0.112501-0.002045 0.220911-0.016364 0.334435-0.016364 0.188184 0 0.371254 0.0225 0.557392 0.028637 59.527439 1.185353 107.417143 49.834952 107.417143 109.681485C767.365391 444.312135 718.279084 493.43117 657.724816 493.43117z" p-id="1512"></path></svg>